<?xml version="1.0" encoding="UTF-8"?>
<!DOCTYPE svg PUBLIC "-//W3C//DTD SVG 1.1//EN" "http://www.w3.org/Graphics/SVG/1.1/DTD/svg11.dtd">
<svg xmlns="http://www.w3.org/2000/svg" version="1.1" width="500px" height="500px" style="shape-rendering:geometricPrecision; text-rendering:geometricPrecision; image-rendering:optimizeQuality; fill-rule:evenodd; clip-rule:evenodd" xmlns:xlink="http://www.w3.org/1999/xlink">
<g><path style="opacity:1" fill="#38b5fe" d="M -0.5,-0.5 C 166.167,-0.5 332.833,-0.5 499.5,-0.5C 499.5,166.167 499.5,332.833 499.5,499.5C 332.833,499.5 166.167,499.5 -0.5,499.5C -0.5,332.833 -0.5,166.167 -0.5,-0.5 Z"/></g>
<g><path style="opacity:1" fill="#fbba59" d="M 341.5,133.5 C 342.076,156.172 342.743,178.839 343.5,201.5C 344.7,248.157 345.366,294.823 345.5,341.5C 345.5,363.5 345.5,385.5 345.5,407.5C 345.666,417.506 345.5,427.506 345,437.5C 340.412,442.743 335.745,442.743 331,437.5C 330.5,425.171 330.333,412.838 330.5,400.5C 331.214,313.625 329.547,226.959 325.5,140.5C 325.333,129.495 325.5,118.495 326,107.5C 326.465,106.069 327.299,104.903 328.5,104C 333.256,102.556 337.089,103.723 340,107.5C 340.17,116.343 340.67,125.01 341.5,133.5 Z"/></g>
<g><path style="opacity:1" fill="#010102" d="M 343.5,201.5 C 342.743,178.839 342.076,156.172 341.5,133.5C 353.719,127.699 366.719,124.866 380.5,125C 403.917,123.626 426.251,127.959 447.5,138C 479.137,156.443 494.137,183.943 492.5,220.5C 491.205,221.098 489.872,221.598 488.5,222C 471.869,223.831 455.203,224.831 438.5,225C 435.331,187.851 414.998,170.851 377.5,174C 361.508,177.499 350.175,186.666 343.5,201.5 Z"/></g>
<g><path style="opacity:1" fill="#000101" d="M 27.5,127.5 C 89.8342,127.333 152.168,127.5 214.5,128C 217.667,128.5 219.5,130.333 220,133.5C 220.667,146.5 220.667,159.5 220,172.5C 218.833,173.667 217.667,174.833 216.5,176C 171.262,176.169 126.096,176.669 81,177.5C 80.1734,199.406 80.3401,221.24 81.5,243C 111.167,243.333 140.833,243.667 170.5,244C 172,244.833 173.167,246 174,247.5C 174.667,261.167 174.667,274.833 174,288.5C 172.833,289.667 171.667,290.833 170.5,292C 140.502,292.5 110.502,292.667 80.5,292.5C 80.1726,315.742 80.5059,338.908 81.5,362C 126.5,362.333 171.5,362.667 216.5,363C 218.333,363.5 219.5,364.667 220,366.5C 220.667,379.5 220.667,392.5 220,405.5C 219.5,408.667 217.667,410.5 214.5,411C 152.167,411.667 89.8333,411.667 27.5,411C 26.5838,410.626 25.7504,410.126 25,409.5C 23.3384,316.581 23.0051,223.581 24,130.5C 25.1451,129.364 26.3117,128.364 27.5,127.5 Z"/></g>
<g><path style="opacity:1" fill="#010101" d="M 325.5,140.5 C 329.547,226.959 331.214,313.625 330.5,400.5C 301.701,383.488 286.201,358.155 284,324.5C 283.06,283.812 283.393,243.145 285,202.5C 290.259,176.282 303.759,155.615 325.5,140.5 Z"/></g>
<g><path style="opacity:1" fill="#020202" d="M 345.5,407.5 C 345.5,385.5 345.5,363.5 345.5,341.5C 359.291,362.54 378.624,370.04 403.5,364C 425.814,356.255 436.981,340.421 437,316.5C 437.5,316 438,315.5 438.5,315C 454.842,314.59 471.176,314.923 487.5,316C 489.433,316.251 491.266,316.751 493,317.5C 492.452,367.392 467.952,398.558 419.5,411C 394.48,416.514 369.814,415.348 345.5,407.5 Z"/></g>
</svg>
